PathFileType	4	(X/Y/Z)	55_2_12_p0_0-403.trc
DataRate	CameraRate	NumFrames	NumMarkers	Units	OrigDataRate	OrigDataStartFrame	OrigNumFrames
59.0	59.0	7	27	m	59.0	353	404
Frame#	Time	RHip			RKnee			RAnkle			RBigToe			RSmallToe			RHeel			LHip			LKnee			LAnkle			LBigToe			LSmallToe			LHeel			Neck			Head			Nose			RShoulder			RElbow			RWrist			RThumb			RIndex			RPinky			LShoulder			LElbow			LWrist			LThumb			LIndex			LPinky			
		X1	Y1	Z1	X2	Y2	Z2	X3	Y3	Z3	X4	Y4	Z4	X5	Y5	Z5	X6	Y6	Z6	X7	Y7	Z7	X8	Y8	Z8	X9	Y9	Z9	X10	Y10	Z10	X11	Y11	Z11	X12	Y12	Z12	X13	Y13	Z13	X14	Y14	Z14	X15	Y15	Z15	X16	Y16	Z16	X17	Y17	Z17	X18	Y18	Z18	X19	Y19	Z19	X20	Y20	Z20	X21	Y21	Z21	X22	Y22	Z22	X23	Y23	Z23	X24	Y24	Z24	X25	Y25	Z25	X26	Y26	Z26	X27	Y27	Z27	
353	5.983050847457627	0.33921242403801966	0.5951733035296264	0.7935020246705429	0.327840546092824	0.5871057611074387	1.2051465578270792	0.3209498487017558	0.6314519366552797	1.630542399010161	0.2950770792904174	0.4429682565309173	1.652025598924956	0.36070519547227886	0.48292523486142525	1.6701863859638872	0.2965812106279906	0.6670627352306902	1.6803992776731405	0.12613316968065594	0.6019045271720403	0.7983955203271962	0.13324287293368456	0.6133365908053295	1.2013988742587502	0.14365097939650204	0.5997086548586862	1.5909605142007535	0.12261890320563905	0.4052984826627974	1.6279769459982716	0.07048489774313108	0.46474464911418806	1.6530004826874456	0.15542290504237333	0.6599744760130924	1.6741690660313477	0.2191468927400656	0.5968030922636349	0.20768141233849116	0.21515506111508706	0.533377491493875	-0.054540570752189425	0.18582723649723182	0.45087415263280867	0.06656813549381724	0.3706576824699537	0.5615007303558528	0.292565979209519	0.43507869151471384	0.5347327593107489	0.5549256812907188	0.4811874060012612	0.4213483641001511	0.7743073172080824	0.44425628919990506	0.27606414986505473	0.8669161489445025	0.45950013882262297	0.26872561496976116	0.8850696855335287	0.5001096380703308	0.37032946512890474	0.9281574481137258	0.05686434579089903	0.5875405269934318	0.3009193032345683	-0.04910373436155099	0.5895121476027733	0.5472054215565719	-0.1036786684767323	0.49073614767825563	0.7700256083146945	-0.0610607334187618	0.4750690540776203	0.8876361895764706	-0.0926448204150203	0.42143341097874315	0.8901965113853214	-0.1651545100693278	0.48578852058207067	0.9178059483394533
354	6.0	0.3339132071748948	0.5830205481734226	0.7928106096743317	0.32761175186561875	0.5870169635382635	1.2047845755695978	0.3204408630396348	0.6302409942839908	1.6395418044329042	0.29510532916025856	0.4429991320646344	1.6520649873431428	0.35624525819862146	0.4695438002558219	1.6663685271169124	0.30205140104552564	0.6810473279957192	1.6896674960042737	0.11766641958055185	0.6150036922891372	0.8019762409752209	0.13234086455897592	0.6130409921854012	1.2057223066856773	0.14381250206253854	0.5996446335304031	1.5908956846093945	0.12279194154038113	0.40543093025595445	1.62831260019768	0.07044790844210778	0.4647347912661696	1.653095986154269	0.1558173340570964	0.6582363416987091	1.6785819382924245	0.21914549511817893	0.5967747613782015	0.20769808641293105	0.2151593398615588	0.5333495166380388	-0.05445038565125555	0.19000508727479706	0.4530630175961395	0.07002237065380154	0.3733099861333054	0.5475998261488464	0.2931442748656713	0.4402967393276179	0.5470940790671064	0.5578198017168361	0.5000721440667764	0.41534625923052615	0.7674291271429237	0.466404707573572	0.2721119957739734	0.855670438788953	0.5070127953230033	0.31386454457587426	0.9027993380246149	0.5190419239727874	0.37513147947631065	0.9175291952752662	0.05678982147307683	0.5875917988211266	0.30076734437082486	-0.051486787032401164	0.5623739408990543	0.5318640954893104	-0.1336755681615311	0.5107685473796557	0.7696374670137859	-0.07660303331971678	0.4840317233496849	0.8779529837290336	-0.1269095606057411	0.43762194935971865	0.8934094452232239	-0.18056735247754074	0.48035649774212885	0.9074985414189906
355	6.016949152542373	0.3324586979568147	0.5669131056563087	0.783510708408282	0.32721160025915724	0.5886614326796951	1.2010433904829574	0.3200527250435984	0.6317372273924855	1.6356617298898168	0.29052740979273256	0.4321334384225757	1.6444713983096046	0.356054386001947	0.47106376275165646	1.6622034818685107	0.3016877053845946	0.6810380350920592	1.6894343059684591	0.12149955249101749	0.6003143994650109	0.7968649369237946	0.13234049076618792	0.6127948860195486	1.20565143200752	0.14284846174690266	0.5996944354169124	1.595690305397197	0.12243995623629697	0.4058964290854617	1.628117857357556	0.07057834387218342	0.46468448206611407	1.6526829919005739	0.15596312843833102	0.6584492144310446	1.6782329112101941	0.2192045787776596	0.5967962496370416	0.2077627284737554	0.2152458302584094	0.5329836914183403	-0.051383870158383596	0.18972325966838563	0.45266329534168354	0.06668339604186607	0.37316319634549233	0.548160174399394	0.2900666786196673	0.4474234179111941	0.533680789597359	0.5502576286006572	0.5088901404800255	0.38857071918373043	0.7572367625736857	0.49927207594790396	0.28092874791562855	0.872403677134501	0.5263252888945936	0.31005935358189884	0.8998063011392946	0.5290386150907787	0.3667461725712096	0.9048225649946585	0.05676461026545139	0.5875582156241796	0.3008406426527555	-0.05564791085047725	0.5503755316013584	0.5325740133875836	-0.1574794353405299	0.5076019067021907	0.7684489453627816	-0.11348778862236787	0.5140787445341577	0.8891469558778339	-0.1601006790359662	0.4740756906156541	0.8825768972906903	-0.21936093866477532	0.5321853826174902	0.8899998368368108
356	6.033898305084746	0.3325532357088735	0.5669279969373027	0.7835367131296158	0.3264830628463975	0.5883276419864284	1.1959899244398229	0.32008463824007016	0.6319309657277787	1.6357473937678568	0.2951807003856063	0.44278048316797025	1.6521286578760834	0.35628986925521444	0.46926349196642664	1.6662591279513586	0.3018733791646814	0.6817226203495034	1.6899785075658367	0.12179261006252186	0.6002988699523591	0.7963273392861407	0.13327441528988138	0.6127197439515577	1.2012552568972938	0.1428689628433943	0.5997796078959303	1.5956853334263845	0.11889330006470594	0.39370566561040016	1.6196091916207283	0.07052186805289665	0.4647741008168601	1.6528893211826636	0.15549796167799304	0.6601364797550805	1.6740472687252066	0.21512144920904233	0.5853934976161068	0.20604050245885036	0.2152845497512835	0.5331354588293443	-0.05134741826296991	0.18982675059593582	0.4527370474084812	0.06659858264237102	0.3688254404927186	0.5368813908353333	0.2912533385873994	0.45010821154588754	0.5193848626908197	0.5460938935778169	0.5201871401672624	0.38673538565250765	0.7519971320903814	0.5345003768577076	0.28753339827209845	0.8567343545423349	0.561314157658485	0.28281274223334657	0.8762154205981455	0.5454164096337311	0.3806226572706867	0.9044510262032164	0.05675902859125379	0.5874621881183899	0.3008315381365779	-0.06371116890830285	0.5618104975480446	0.5283974904116405	-0.16987067801447658	0.5076677194842892	0.7644256241042175	-0.14197997037447882	0.4975118914912515	0.8717884788693336	-0.18223494361575748	0.48648012878898467	0.8671575389332833	-0.24815704945958386	0.5267948806171763	0.8828684736341307
357	6.0508474576271185	0.3328460489424275	0.5675045217880466	0.7840861281565873	0.3274050184801762	0.5887306653710899	1.1916472800412978	0.32036862983796793	0.6301852138365082	1.6396259825624264	0.2904898467840486	0.43195516328117817	1.6446637934430102	0.3561322119870697	0.46858931246437097	1.666029783210138	0.30194067764418037	0.6820899624975975	1.6903377708732985	0.1261178983552736	0.6020111862123059	0.7971738098198253	0.13329755281980576	0.6128975034012393	1.2012934339848267	0.14283750556731423	0.5998468928916666	1.5957767983400648	0.12249216276314637	0.4064835690411665	1.6283298264131207	0.07062379347189743	0.46481559438516384	1.6528440463922198	0.15579274194793846	0.6585942483229466	1.6786879867895679	0.21929219592384094	0.5966004004413142	0.2077421122070628	0.2153082928611925	0.5329797364926405	-0.05138214288970103	0.18983987520427306	0.4527692698956751	0.06662428515633281	0.3735263192806433	0.5475676026771061	0.2932775480532907	0.45960290421798344	0.5308407111556649	0.5493225478941535	0.5207143783027172	0.38674360400004504	0.7518253592413577	0.557806202919763	0.2686178375137987	0.8456646393496774	0.5816552985117993	0.2800601173422563	0.8658671198168871	0.5554175145187318	0.4013788802248752	0.9019099265274594	0.053502664989354014	0.576142362131255	0.29866491544998885	-0.06797294014119915	0.5597614849492443	0.5275230511148951	-0.18371221752639186	0.5318675749470069	0.7695542905608805	-0.1650581187629079	0.49050820435705317	0.8641872786282827	-0.22212634800709452	0.5596161855421959	0.8965359400053934	-0.26584384479015616	0.5214656082961869	0.8842047107853932
358	6.067796610169491	0.3299184780166422	0.5817855898418791	0.7890727330950377	0.32654326477499435	0.5883628545199182	1.1961795123698062	0.31769061456724534	0.6487163217276893	1.6414851651179245	0.2904244860308366	0.43212819440237793	1.6446932709607935	0.3561392766239844	0.4690485372071946	1.666167506946081	0.3017922696178135	0.6824730313557814	1.6903607549387212	0.12989694849463287	0.5878945888509874	0.7920632926063719	0.13241497606064256	0.613154513798037	1.2056897113571419	0.14423161632871517	0.5979824807532316	1.5945065760611925	0.12349045735351667	0.40580790431298086	1.6238101342274576	0.07178049691760204	0.46429736160364665	1.6485725419284187	0.15608608599013207	0.6586540712183965	1.6781088989394752	0.21938167371461817	0.5966721901277499	0.20780566488458133	0.21526312329773406	0.5329418679907836	-0.05133419614165885	0.18987877337102235	0.4527942263330133	0.0666880374708845	0.3735848799365357	0.5476693797946339	0.29329391819508643	0.4619298481691214	0.5166842547044515	0.5451702316250249	0.5312661738458553	0.39825487688212696	0.7595422185597314	0.5735942378588288	0.28153726992537276	0.8508229658304013	0.6159555384657491	0.346012868724223	0.8737301474734573	0.5986816843718136	0.435994601290657	0.9111990857442198	0.05693982406441036	0.5875124413742661	0.30051486225845886	-0.07322438337450687	0.5741135813810584	0.5270738735832685	-0.1976957520941021	0.5561941846069645	0.7627476727218641	-0.17082131997340838	0.5046786853530677	0.8648730971901992	-0.23455159356650931	0.5594079664274664	0.8920710750067838	-0.2840475473481982	0.5487373637679707	0.8828489300535044
359	6.084745762711864	0.3296778163302937	0.5814881244534198	0.7886549392595038	0.3266175295854515	0.586757884540248	1.199419302486555	0.320953711897716	0.6317828259122362	1.6307026518124905	0.2913850829461998	0.4319807646541012	1.6392174971652183	0.35570724331685116	0.46845878860646534	1.6661517294414008	0.3033365922428183	0.6838702910023948	1.696596137192347	0.12568273093592353	0.5859202101192241	0.7916261808699169	0.13242819105860182	0.6132777628854076	1.2057602515450594	0.14391990594441456	0.5995989515752069	1.5906824749453905	0.12448436294189787	0.406173581403695	1.6201164816626858	0.07277067591341388	0.4638262283492474	1.6443254413236716	0.1557250025384125	0.6602204460922884	1.6737107511254226	0.22272154415218132	0.5832913911630704	0.20557797687876167	0.2153033169143744	0.5328525916168532	-0.051299474235581066	0.19013768822814792	0.4532107555201743	0.06998217809123793	0.3736547808986469	0.5476674613689331	0.2933092682881747	0.46557565611887536	0.5171393666021252	0.5412710318404598	0.5501174157720251	0.4212988922623944	0.7643886629813083	0.5868774817583409	0.29306460963605035	0.8456987207822562	0.6205372244218263	0.3458360960828691	0.8731170855722328	0.6034947377059731	0.4467658205775649	0.9074351241885262	0.05682031866635596	0.588179794721457	0.2968145034392618	-0.08213663339629206	0.5851697446689924	0.5299189066384963	-0.2025715573164632	0.5688997208816459	0.7636665479157453	-0.19304132096042564	0.5269658637476752	0.8692084507235491	-0.2511937660679366	0.5387473476442715	0.878730209748725	-0.29906277173209217	0.5733122664051244	0.8793813738574404
